<svg xmlns="http://www.w3.org/2000/svg" width="100" height="100"><g transform="scale(0.078125,0.078125)"><path d="M994 560q-47 0 -99 47l-95 86l0 -524q0 -49 -16 -77q-17 -28 -32 -44q-16 -15 -44 -32q-28 -16 -68 -16q-40 0 -68 16q-28 17 -44 32q-15 16 -32 44q-16 28 -16 77l0 532l-51 -53q-31 -33 -55 -52q-23 -19 -44 -28q-20 -8 -50 -8q-30 0 -50 8q-20 8 -40 24q-21 17 -38 38q-16 20 -24 40q-8 20 -8 52l0 10q0 42 44 87l86 89q129 133 260 258l130 124l130 -124q131 -125 260 -258l81 -83q49 -51 49 -98q0 -47 -24 -83q-25 -35 -60 -60q-36 -24 -82 -24" fill="black"/></g></svg>