<svg xmlns="http://www.w3.org/2000/svg" width="100" height="100"><g transform="scale(0.078125,0.078125)"><path d="M994 720q46 0 82 -24q35 -25 60 -60q24 -36 24 -83q0 -47 -49 -98l-81 -83q-129 -133 -260 -258l-130 -124l-130 124q-131 125 -260 258l-86 89q-44 45 -44 87l0 10q0 32 8 52q8 20 24 40q17 21 38 38q20 16 40 24q20 8 50 8q30 0 50 -8q21 -9 44 -28q24 -19 55 -52l51 -53l0 532q0 49 16 77q17 28 32 44q16 15 44 32q28 16 68 16q40 0 68 -16q28 -17 44 -32q15 -16 32 -44q16 -28 16 -77l0 -524l95 86q52 47 99 47" fill="black"/></g></svg>