<svg xmlns="http://www.w3.org/2000/svg" xmlns:xlink="http://www.w3.org/1999/xlink" version="1.1" id="Layer_1" x="0px" y="0px" width="100px" height="100px" viewBox="0 0 100 100" style="enable-background:new 0 0 100 100;" xml:space="preserve">
<path style="fill:#010101;" d="M49.988,66.662C49.988,57.459,42.518,50,33.312,50c-9.203,0-16.662,7.459-16.662,16.662l0.012,0.013  C16.65,79.004,9.949,89.758,0,95.52l0.049,0.062C4.944,98.389,10.607,100,16.662,100C35.07,100,50,85.07,50,66.662H49.988z"/>
<g>
	<path style="fill:#010101;" d="M96.338,3.662c-4.883-4.883-12.793-4.883-17.676,0l-35.633,35.62   c8.252,2.942,14.746,9.437,17.676,17.688l35.633-35.633C101.221,16.455,101.221,8.545,96.338,3.662z"/>
</g>
</svg>