<?xml version="1.0" encoding="UTF-8" standalone="no"?>
<!-- Created with Inkscape (http://www.inkscape.org/) -->

<svg
   xmlns:dc="http://purl.org/dc/elements/1.1/"
   xmlns:cc="http://creativecommons.org/ns#"
   xmlns:rdf="http://www.w3.org/1999/02/22-rdf-syntax-ns#"
   xmlns:svg="http://www.w3.org/2000/svg"
   xmlns="http://www.w3.org/2000/svg"
   xmlns:sodipodi="http://sodipodi.sourceforge.net/DTD/sodipodi-0.dtd"
   xmlns:inkscape="http://www.inkscape.org/namespaces/inkscape"
   width="744.09448819"
   height="1052.3622047"
   id="svg3143"
   version="1.1"
   inkscape:version="0.48.3.1 r9886"
   sodipodi:docname="New document 7">
  <defs
     id="defs3145" />
  <sodipodi:namedview
     id="base"
     pagecolor="#ffffff"
     bordercolor="#666666"
     borderopacity="1.0"
     inkscape:pageopacity="0.0"
     inkscape:pageshadow="2"
     inkscape:zoom="2.8"
     inkscape:cx="234.41965"
     inkscape:cy="886.39481"
     inkscape:document-units="px"
     inkscape:current-layer="layer1"
     showgrid="false"
     inkscape:window-width="475"
     inkscape:window-height="377"
     inkscape:window-x="1428"
     inkscape:window-y="539"
     inkscape:window-maximized="0" />
  <metadata
     id="metadata3148">
    <rdf:RDF>
      <cc:Work
         rdf:about="">
        <dc:format>image/svg+xml</dc:format>
        <dc:type
           rdf:resource="http://purl.org/dc/dcmitype/StillImage" />
        <dc:title></dc:title>
      </cc:Work>
    </rdf:RDF>
  </metadata>
  <g
     inkscape:label="Layer 1"
     inkscape:groupmode="layer"
     id="layer1"
     style="display:inline">
    <g
       id="g4491"
       style="filter:url(#filter4574)"
       inkscape:export-filename="/home/dcantor/Desktop/vox0.89.png"
       inkscape:export-xdpi="90"
       inkscape:export-ydpi="90">
      <rect
         style="fill:#00a3d9;fill-opacity:1;fill-rule:nonzero;stroke:none;display:inline"
         id="rect5376"
         width="141.42857"
         height="40.714287"
         x="93.035706"
         y="179.86217" />
      <g
         id="g5431"
         transform="matrix(0.64097948,0,0,0.68066333,23.990857,50.689631)"
         style="fill:#cbf0fc;fill-opacity:1;stroke:none;display:inline">
        <g
           transform="matrix(1.7244248,0,0,1.6824575,-142.57584,-105.58574)"
           id="text5391"
           style="font-size:40px;font-style:normal;font-weight:normal;line-height:125%;letter-spacing:0px;word-spacing:0px;fill:#cbf0fc;fill-opacity:1;stroke:none;font-family:Sans">
          <path
             sodipodi:nodetypes="ccssscccscccccccccc"
             inkscape:connector-curvature="0"
             id="path5396"
             style="font-variant:normal;font-weight:500;font-stretch:normal;fill:#cbf0fc;fill-opacity:1;stroke:none;font-family:eurofurence;-inkscape-font-specification:eurofurence Medium"
             d="m 195.04563,195.6357 -5.28172,6.34839 c -0.2638,0.30967 -0.57348,0.46451 -0.92903,0.46451 -0.34409,0 -0.64803,-0.12616 -0.91183,-0.37849 -0.2638,-0.25233 -0.3957,-0.54481 -0.3957,-0.87742 0,-0.28674 0.10896,-0.55627 0.32688,-0.8086 l 5.55699,-6.70968 -5.57419,-6.69248 c -0.21793,-0.25231 -0.32689,-0.52184 -0.32689,-0.8086 0,-0.3326 0.1319,-0.62507 0.3957,-0.87742 0.2638,-0.25231 0.56774,-0.37847 0.91183,-0.37849 0.35555,2e-5 0.66523,0.15485 0.92903,0.46451 l 5.29893,6.34839 5.26451,-6.34839 c 0.26379,-0.30966 0.5792,-0.46449 0.94624,-0.46451 0.3326,2e-5 0.63081,0.12618 0.89463,0.37849 0.26378,0.25235 0.39568,0.54482 0.39569,0.87742 -10e-6,0.28676 -0.10324,0.55629 -0.30967,0.8086 l -5.5742,6.69248" />
        </g>
        <path
           sodipodi:nodetypes="ccscccc"
           inkscape:connector-curvature="0"
           id="path5396-8"
           style="font-size:40px;font-style:normal;font-variant:normal;font-weight:500;font-stretch:normal;line-height:125%;letter-spacing:0px;word-spacing:0px;fill:#cbf0fc;fill-opacity:1;stroke:none;display:inline;font-family:eurofurence;-inkscape-font-specification:eurofurence Medium"
           d="m 196.47386,220.91849 12.57431,14.75403 c 0.37315,0.40686 0.56357,0.84509 0.57124,1.31464 0.008,0.54463 -0.20504,1.02733 -0.64185,1.44812 -0.43682,0.42077 -0.94446,0.63611 -1.52301,0.64606 -0.59783,0.0103 -1.12264,-0.23437 -1.57448,-0.73382 L 193.7689,224.15574" />
      </g>
      <text
         sodipodi:linespacing="125%"
         id="text3151"
         y="209.86218"
         x="100.71429"
         style="font-size:40px;font-style:normal;font-variant:normal;font-weight:500;font-stretch:normal;text-align:start;line-height:125%;letter-spacing:0px;word-spacing:0px;writing-mode:lr-tb;text-anchor:start;fill:#cbf0fc;fill-opacity:1;stroke:none;font-family:eurofurence;-inkscape-font-specification:eurofurence Medium"
         xml:space="preserve"><tspan
           style="font-size:40px;font-style:normal;font-variant:normal;font-weight:500;font-stretch:normal;text-align:start;line-height:125%;writing-mode:lr-tb;text-anchor:start;fill:#cbf0fc;fill-opacity:1;font-family:eurofurence;-inkscape-font-specification:eurofurence Medium"
           y="209.86218"
           x="100.71429"
           id="tspan3153"
           sodipodi:role="line">vo   0.89</tspan></text>
    </g>
  </g>
  <g
     inkscape:groupmode="layer"
     id="layer2"
     inkscape:label="Layer"
     style="display:inline" />
</svg>
